<mxfile host="app.diagrams.net" agent="Mozilla/5.0 (Windows NT 10.0; Win64; x64) AppleWebKit/537.36 (KHTML, like Gecko) Chrome/127.0.0.0 Safari/537.36" version="24.7.6">
  <diagram name="Page-1" id="jtvteJVmfs3ai3BGOIy0">
    <mxGraphModel dx="978" dy="1347" grid="1" gridSize="10" guides="1" tooltips="1" connect="1" arrows="1" fold="1" page="1" pageScale="1" pageWidth="1169" pageHeight="827" math="0" shadow="0">
      <root>
        <mxCell id="0" />
        <mxCell id="1" parent="0" />
        <mxCell id="dUWaoSSYVlly-yTtK20s-1" value="&lt;font style=&quot;font-size: 24px;&quot; face=&quot;Verdana&quot;&gt;Hotel&lt;/font&gt;" style="whiteSpace=wrap;html=1;align=center;" parent="1" vertex="1">
          <mxGeometry x="280" y="160" width="120" height="50" as="geometry" />
        </mxCell>
        <mxCell id="dUWaoSSYVlly-yTtK20s-2" value="&lt;font face=&quot;Verdana&quot; style=&quot;font-size: 18px;&quot;&gt;Name&lt;/font&gt;" style="ellipse;whiteSpace=wrap;html=1;align=center;" parent="1" vertex="1">
          <mxGeometry x="125" y="160" width="105" height="50" as="geometry" />
        </mxCell>
        <mxCell id="uV3Q8OEba61PmKA7GwV3-1" value="&lt;font style=&quot;font-size: 18px;&quot; face=&quot;Verdana&quot;&gt;HotelID&lt;/font&gt;" style="ellipse;whiteSpace=wrap;html=1;align=center;fontStyle=4;" vertex="1" parent="1">
          <mxGeometry x="120" y="90" width="110" height="50" as="geometry" />
        </mxCell>
        <mxCell id="uV3Q8OEba61PmKA7GwV3-2" value="&lt;font face=&quot;Verdana&quot; style=&quot;font-size: 18px;&quot;&gt;Address&lt;/font&gt;" style="ellipse;whiteSpace=wrap;html=1;align=center;" vertex="1" parent="1">
          <mxGeometry x="125" y="240" width="110" height="50" as="geometry" />
        </mxCell>
        <mxCell id="uV3Q8OEba61PmKA7GwV3-3" value="&lt;font style=&quot;font-size: 18px;&quot; face=&quot;Verdana&quot;&gt;Email&lt;/font&gt;" style="ellipse;whiteSpace=wrap;html=1;align=center;" vertex="1" parent="1">
          <mxGeometry x="220" y="300" width="100" height="40" as="geometry" />
        </mxCell>
        <mxCell id="uV3Q8OEba61PmKA7GwV3-4" value="&lt;font style=&quot;font-size: 18px;&quot; face=&quot;Verdana&quot;&gt;ContactNo&lt;/font&gt;" style="ellipse;whiteSpace=wrap;html=1;align=center;" vertex="1" parent="1">
          <mxGeometry x="320" y="260" width="120" height="50" as="geometry" />
        </mxCell>
        <mxCell id="uV3Q8OEba61PmKA7GwV3-7" value="" style="endArrow=none;html=1;rounded=0;entryX=0.25;entryY=0;entryDx=0;entryDy=0;" edge="1" parent="1" target="dUWaoSSYVlly-yTtK20s-1">
          <mxGeometry relative="1" as="geometry">
            <mxPoint x="230" y="114.5" as="sourcePoint" />
            <mxPoint x="390" y="114.5" as="targetPoint" />
          </mxGeometry>
        </mxCell>
        <mxCell id="uV3Q8OEba61PmKA7GwV3-8" value="" style="endArrow=none;html=1;rounded=0;entryX=0;entryY=0.5;entryDx=0;entryDy=0;" edge="1" parent="1" target="dUWaoSSYVlly-yTtK20s-1">
          <mxGeometry relative="1" as="geometry">
            <mxPoint x="230" y="184.5" as="sourcePoint" />
            <mxPoint x="390" y="184.5" as="targetPoint" />
          </mxGeometry>
        </mxCell>
        <mxCell id="uV3Q8OEba61PmKA7GwV3-9" value="" style="endArrow=none;html=1;rounded=0;exitX=0.982;exitY=0.36;exitDx=0;exitDy=0;exitPerimeter=0;entryX=0.167;entryY=1;entryDx=0;entryDy=0;entryPerimeter=0;" edge="1" parent="1" source="uV3Q8OEba61PmKA7GwV3-2" target="dUWaoSSYVlly-yTtK20s-1">
          <mxGeometry relative="1" as="geometry">
            <mxPoint x="370" y="220" as="sourcePoint" />
            <mxPoint x="530" y="220" as="targetPoint" />
          </mxGeometry>
        </mxCell>
        <mxCell id="uV3Q8OEba61PmKA7GwV3-10" value="" style="endArrow=none;html=1;rounded=0;exitX=0.57;exitY=-0.075;exitDx=0;exitDy=0;exitPerimeter=0;entryX=0.317;entryY=1.04;entryDx=0;entryDy=0;entryPerimeter=0;" edge="1" parent="1" source="uV3Q8OEba61PmKA7GwV3-3" target="dUWaoSSYVlly-yTtK20s-1">
          <mxGeometry relative="1" as="geometry">
            <mxPoint x="370" y="220" as="sourcePoint" />
            <mxPoint x="530" y="220" as="targetPoint" />
          </mxGeometry>
        </mxCell>
        <mxCell id="uV3Q8OEba61PmKA7GwV3-11" value="" style="endArrow=none;html=1;rounded=0;exitX=0.417;exitY=-0.04;exitDx=0;exitDy=0;exitPerimeter=0;entryX=0.667;entryY=1.04;entryDx=0;entryDy=0;entryPerimeter=0;" edge="1" parent="1" source="uV3Q8OEba61PmKA7GwV3-4" target="dUWaoSSYVlly-yTtK20s-1">
          <mxGeometry relative="1" as="geometry">
            <mxPoint x="370" y="220" as="sourcePoint" />
            <mxPoint x="530" y="220" as="targetPoint" />
          </mxGeometry>
        </mxCell>
        <mxCell id="uV3Q8OEba61PmKA7GwV3-12" value="&lt;font style=&quot;font-size: 24px;&quot; face=&quot;Verdana&quot;&gt;Has&lt;/font&gt;" style="shape=rhombus;perimeter=rhombusPerimeter;whiteSpace=wrap;html=1;align=center;" vertex="1" parent="1">
          <mxGeometry x="530" y="150" width="120" height="60" as="geometry" />
        </mxCell>
        <mxCell id="uV3Q8OEba61PmKA7GwV3-13" value="" style="endArrow=none;html=1;rounded=0;entryX=0;entryY=0.5;entryDx=0;entryDy=0;" edge="1" parent="1" target="uV3Q8OEba61PmKA7GwV3-12">
          <mxGeometry relative="1" as="geometry">
            <mxPoint x="400" y="179.5" as="sourcePoint" />
            <mxPoint x="530" y="180" as="targetPoint" />
          </mxGeometry>
        </mxCell>
        <mxCell id="uV3Q8OEba61PmKA7GwV3-14" value="" style="endArrow=none;html=1;rounded=0;" edge="1" parent="1">
          <mxGeometry relative="1" as="geometry">
            <mxPoint x="650" y="179.5" as="sourcePoint" />
            <mxPoint x="780" y="180" as="targetPoint" />
          </mxGeometry>
        </mxCell>
        <mxCell id="uV3Q8OEba61PmKA7GwV3-15" value="" style="endArrow=none;html=1;rounded=0;" edge="1" parent="1">
          <mxGeometry relative="1" as="geometry">
            <mxPoint x="630" y="189.5" as="sourcePoint" />
            <mxPoint x="780" y="190" as="targetPoint" />
          </mxGeometry>
        </mxCell>
        <mxCell id="uV3Q8OEba61PmKA7GwV3-16" value="&lt;font face=&quot;Verdana&quot;&gt;&lt;span style=&quot;font-size: 24px;&quot;&gt;Room&lt;/span&gt;&lt;/font&gt;" style="whiteSpace=wrap;html=1;align=center;" vertex="1" parent="1">
          <mxGeometry x="780" y="160" width="120" height="50" as="geometry" />
        </mxCell>
        <mxCell id="uV3Q8OEba61PmKA7GwV3-17" value="&lt;font style=&quot;font-size: 18px;&quot; face=&quot;Verdana&quot;&gt;RoomID&lt;/font&gt;" style="ellipse;whiteSpace=wrap;html=1;align=center;fontStyle=4;" vertex="1" parent="1">
          <mxGeometry x="780" y="25" width="110" height="40" as="geometry" />
        </mxCell>
        <mxCell id="uV3Q8OEba61PmKA7GwV3-18" value="&lt;font style=&quot;font-size: 18px;&quot; face=&quot;Verdana&quot;&gt;HotelID&lt;/font&gt;" style="ellipse;whiteSpace=wrap;html=1;align=center;dashed=1;" vertex="1" parent="1">
          <mxGeometry x="880" y="50" width="100" height="40" as="geometry" />
        </mxCell>
        <mxCell id="uV3Q8OEba61PmKA7GwV3-19" value="&lt;font face=&quot;Verdana&quot;&gt;&lt;span style=&quot;font-size: 18px;&quot;&gt;RoomType&lt;/span&gt;&lt;/font&gt;" style="ellipse;whiteSpace=wrap;html=1;align=center;" vertex="1" parent="1">
          <mxGeometry x="685" y="260" width="120" height="50" as="geometry" />
        </mxCell>
        <mxCell id="uV3Q8OEba61PmKA7GwV3-20" value="&lt;font face=&quot;Verdana&quot;&gt;&lt;span style=&quot;font-size: 18px;&quot;&gt;Price&lt;/span&gt;&lt;/font&gt;" style="ellipse;whiteSpace=wrap;html=1;align=center;" vertex="1" parent="1">
          <mxGeometry x="700" y="65" width="90" height="50" as="geometry" />
        </mxCell>
        <mxCell id="uV3Q8OEba61PmKA7GwV3-21" value="&lt;font style=&quot;font-size: 18px;&quot; face=&quot;Verdana&quot;&gt;AvailabilityStatus&lt;/font&gt;" style="ellipse;whiteSpace=wrap;html=1;align=center;" vertex="1" parent="1">
          <mxGeometry x="810" y="250" width="170" height="50" as="geometry" />
        </mxCell>
        <mxCell id="uV3Q8OEba61PmKA7GwV3-23" value="&lt;font style=&quot;font-size: 18px;&quot; face=&quot;Verdana&quot;&gt;RoomNumber&lt;/font&gt;" style="ellipse;whiteSpace=wrap;html=1;align=center;" vertex="1" parent="1">
          <mxGeometry x="930" y="110" width="140" height="50" as="geometry" />
        </mxCell>
        <mxCell id="uV3Q8OEba61PmKA7GwV3-24" value="" style="endArrow=none;html=1;rounded=0;exitX=1;exitY=1;exitDx=0;exitDy=0;" edge="1" parent="1" source="uV3Q8OEba61PmKA7GwV3-20">
          <mxGeometry relative="1" as="geometry">
            <mxPoint x="790" y="90" as="sourcePoint" />
            <mxPoint x="820" y="160" as="targetPoint" />
          </mxGeometry>
        </mxCell>
        <mxCell id="uV3Q8OEba61PmKA7GwV3-25" value="" style="endArrow=none;html=1;rounded=0;entryX=0.833;entryY=0;entryDx=0;entryDy=0;entryPerimeter=0;exitX=0.28;exitY=1.075;exitDx=0;exitDy=0;exitPerimeter=0;" edge="1" parent="1" source="uV3Q8OEba61PmKA7GwV3-18" target="uV3Q8OEba61PmKA7GwV3-16">
          <mxGeometry relative="1" as="geometry">
            <mxPoint x="910" y="110" as="sourcePoint" />
            <mxPoint x="940" y="180" as="targetPoint" />
          </mxGeometry>
        </mxCell>
        <mxCell id="uV3Q8OEba61PmKA7GwV3-26" value="" style="endArrow=none;html=1;rounded=0;" edge="1" parent="1">
          <mxGeometry relative="1" as="geometry">
            <mxPoint x="839.5" y="65" as="sourcePoint" />
            <mxPoint x="839.5" y="160" as="targetPoint" />
          </mxGeometry>
        </mxCell>
        <mxCell id="uV3Q8OEba61PmKA7GwV3-27" value="" style="endArrow=none;html=1;rounded=0;exitX=0.5;exitY=0;exitDx=0;exitDy=0;entryX=0.167;entryY=1.06;entryDx=0;entryDy=0;entryPerimeter=0;" edge="1" parent="1" source="uV3Q8OEba61PmKA7GwV3-19" target="uV3Q8OEba61PmKA7GwV3-16">
          <mxGeometry relative="1" as="geometry">
            <mxPoint x="710" y="200" as="sourcePoint" />
            <mxPoint x="870" y="200" as="targetPoint" />
          </mxGeometry>
        </mxCell>
        <mxCell id="uV3Q8OEba61PmKA7GwV3-28" value="" style="endArrow=none;html=1;rounded=0;entryX=0.75;entryY=1;entryDx=0;entryDy=0;exitX=0.341;exitY=0.02;exitDx=0;exitDy=0;exitPerimeter=0;" edge="1" parent="1" source="uV3Q8OEba61PmKA7GwV3-21" target="uV3Q8OEba61PmKA7GwV3-16">
          <mxGeometry relative="1" as="geometry">
            <mxPoint x="710" y="200" as="sourcePoint" />
            <mxPoint x="870" y="200" as="targetPoint" />
          </mxGeometry>
        </mxCell>
        <mxCell id="uV3Q8OEba61PmKA7GwV3-30" value="" style="endArrow=none;html=1;rounded=0;exitX=1;exitY=0.25;exitDx=0;exitDy=0;" edge="1" parent="1" source="uV3Q8OEba61PmKA7GwV3-16" target="uV3Q8OEba61PmKA7GwV3-23">
          <mxGeometry relative="1" as="geometry">
            <mxPoint x="920" y="179.5" as="sourcePoint" />
            <mxPoint x="1080" y="179.5" as="targetPoint" />
          </mxGeometry>
        </mxCell>
        <mxCell id="uV3Q8OEba61PmKA7GwV3-31" value="" style="endArrow=none;html=1;rounded=0;" edge="1" parent="1">
          <mxGeometry relative="1" as="geometry">
            <mxPoint x="900" y="179.5" as="sourcePoint" />
            <mxPoint x="1120" y="180" as="targetPoint" />
          </mxGeometry>
        </mxCell>
        <mxCell id="uV3Q8OEba61PmKA7GwV3-32" value="" style="endArrow=none;html=1;rounded=0;" edge="1" parent="1">
          <mxGeometry relative="1" as="geometry">
            <mxPoint x="900" y="190" as="sourcePoint" />
            <mxPoint x="1120" y="191" as="targetPoint" />
          </mxGeometry>
        </mxCell>
        <mxCell id="uV3Q8OEba61PmKA7GwV3-33" value="&lt;font face=&quot;Verdana&quot; style=&quot;font-size: 24px;&quot;&gt;Reserve&lt;/font&gt;" style="shape=rhombus;perimeter=rhombusPerimeter;whiteSpace=wrap;html=1;align=center;" vertex="1" parent="1">
          <mxGeometry x="1110" y="147.5" width="140" height="75" as="geometry" />
        </mxCell>
        <mxCell id="uV3Q8OEba61PmKA7GwV3-34" value="&lt;font face=&quot;Verdana&quot;&gt;&lt;span style=&quot;font-size: 24px;&quot;&gt;Reservation&lt;/span&gt;&lt;/font&gt;" style="whiteSpace=wrap;html=1;align=center;" vertex="1" parent="1">
          <mxGeometry x="1270" y="97.5" width="150" height="50" as="geometry" />
        </mxCell>
        <mxCell id="uV3Q8OEba61PmKA7GwV3-35" value="&lt;font style=&quot;font-size: 18px;&quot; face=&quot;Verdana&quot;&gt;ReservationID&lt;/font&gt;" style="ellipse;whiteSpace=wrap;html=1;align=center;fontStyle=4;" vertex="1" parent="1">
          <mxGeometry x="1290" y="-10" width="140" height="50" as="geometry" />
        </mxCell>
        <mxCell id="uV3Q8OEba61PmKA7GwV3-36" value="&lt;font style=&quot;font-size: 18px;&quot; face=&quot;Verdana&quot;&gt;GuestID&lt;/font&gt;" style="ellipse;whiteSpace=wrap;html=1;align=center;dashed=1;" vertex="1" parent="1">
          <mxGeometry x="1180" y="25" width="100" height="40" as="geometry" />
        </mxCell>
        <mxCell id="uV3Q8OEba61PmKA7GwV3-37" value="&lt;font style=&quot;font-size: 18px;&quot; face=&quot;Verdana&quot;&gt;RoomID&lt;/font&gt;" style="ellipse;whiteSpace=wrap;html=1;align=center;dashed=1;" vertex="1" parent="1">
          <mxGeometry x="1440" y="20" width="100" height="40" as="geometry" />
        </mxCell>
        <mxCell id="uV3Q8OEba61PmKA7GwV3-38" value="" style="endArrow=none;html=1;rounded=0;entryX=0.607;entryY=-0.01;entryDx=0;entryDy=0;entryPerimeter=0;" edge="1" parent="1" target="uV3Q8OEba61PmKA7GwV3-34">
          <mxGeometry relative="1" as="geometry">
            <mxPoint x="1360" y="40" as="sourcePoint" />
            <mxPoint x="1520" y="40" as="targetPoint" />
          </mxGeometry>
        </mxCell>
        <mxCell id="uV3Q8OEba61PmKA7GwV3-39" value="" style="endArrow=none;html=1;rounded=0;entryX=0.25;entryY=0;entryDx=0;entryDy=0;exitX=1;exitY=1;exitDx=0;exitDy=0;" edge="1" parent="1" source="uV3Q8OEba61PmKA7GwV3-36" target="uV3Q8OEba61PmKA7GwV3-34">
          <mxGeometry relative="1" as="geometry">
            <mxPoint x="1280" y="50" as="sourcePoint" />
            <mxPoint x="1440" y="50" as="targetPoint" />
          </mxGeometry>
        </mxCell>
        <mxCell id="uV3Q8OEba61PmKA7GwV3-40" value="" style="endArrow=none;html=1;rounded=0;entryX=0.84;entryY=-0.05;entryDx=0;entryDy=0;entryPerimeter=0;exitX=0;exitY=1;exitDx=0;exitDy=0;" edge="1" parent="1" source="uV3Q8OEba61PmKA7GwV3-37" target="uV3Q8OEba61PmKA7GwV3-34">
          <mxGeometry relative="1" as="geometry">
            <mxPoint x="1450" y="60" as="sourcePoint" />
            <mxPoint x="1610" y="60" as="targetPoint" />
          </mxGeometry>
        </mxCell>
        <mxCell id="uV3Q8OEba61PmKA7GwV3-41" value="" style="endArrow=none;html=1;rounded=0;entryX=0;entryY=0.5;entryDx=0;entryDy=0;exitX=0.629;exitY=0.113;exitDx=0;exitDy=0;exitPerimeter=0;" edge="1" parent="1" source="uV3Q8OEba61PmKA7GwV3-33" target="uV3Q8OEba61PmKA7GwV3-34">
          <mxGeometry relative="1" as="geometry">
            <mxPoint x="1190" y="160" as="sourcePoint" />
            <mxPoint x="1350" y="160" as="targetPoint" />
          </mxGeometry>
        </mxCell>
        <mxCell id="uV3Q8OEba61PmKA7GwV3-42" value="&lt;font style=&quot;font-size: 18px;&quot; face=&quot;Verdana&quot;&gt;ReservationStatus&lt;/font&gt;" style="ellipse;whiteSpace=wrap;html=1;align=center;" vertex="1" parent="1">
          <mxGeometry x="1460" y="97.5" width="180" height="47" as="geometry" />
        </mxCell>
        <mxCell id="uV3Q8OEba61PmKA7GwV3-43" value="&lt;font style=&quot;font-size: 18px;&quot; face=&quot;Verdana&quot;&gt;CheckInDate&lt;/font&gt;" style="ellipse;whiteSpace=wrap;html=1;align=center;" vertex="1" parent="1">
          <mxGeometry x="1410" y="200" width="140" height="40" as="geometry" />
        </mxCell>
        <mxCell id="uV3Q8OEba61PmKA7GwV3-44" value="&lt;font style=&quot;font-size: 18px;&quot; face=&quot;Verdana&quot;&gt;CheckOutDate&lt;/font&gt;" style="ellipse;whiteSpace=wrap;html=1;align=center;" vertex="1" parent="1">
          <mxGeometry x="1250" y="200" width="140" height="40" as="geometry" />
        </mxCell>
        <mxCell id="uV3Q8OEba61PmKA7GwV3-45" value="" style="endArrow=none;html=1;rounded=0;entryX=0.4;entryY=1.05;entryDx=0;entryDy=0;entryPerimeter=0;" edge="1" parent="1" target="uV3Q8OEba61PmKA7GwV3-34">
          <mxGeometry relative="1" as="geometry">
            <mxPoint x="1300" y="200" as="sourcePoint" />
            <mxPoint x="1460" y="200" as="targetPoint" />
          </mxGeometry>
        </mxCell>
        <mxCell id="uV3Q8OEba61PmKA7GwV3-46" value="" style="endArrow=none;html=1;rounded=0;" edge="1" parent="1">
          <mxGeometry relative="1" as="geometry">
            <mxPoint x="1460" y="200" as="sourcePoint" />
            <mxPoint x="1400" y="146" as="targetPoint" />
          </mxGeometry>
        </mxCell>
        <mxCell id="uV3Q8OEba61PmKA7GwV3-47" value="" style="endArrow=none;html=1;rounded=0;" edge="1" parent="1">
          <mxGeometry relative="1" as="geometry">
            <mxPoint x="1420" y="120" as="sourcePoint" />
            <mxPoint x="1460" y="120" as="targetPoint" />
          </mxGeometry>
        </mxCell>
        <mxCell id="uV3Q8OEba61PmKA7GwV3-48" value="&lt;font face=&quot;Verdana&quot;&gt;&lt;span style=&quot;font-size: 24px;&quot;&gt;Guest&lt;/span&gt;&lt;/font&gt;" style="whiteSpace=wrap;html=1;align=center;" vertex="1" parent="1">
          <mxGeometry x="1270" y="389" width="150" height="50" as="geometry" />
        </mxCell>
        <mxCell id="uV3Q8OEba61PmKA7GwV3-49" value="" style="endArrow=none;html=1;rounded=0;entryX=0.087;entryY=-0.04;entryDx=0;entryDy=0;entryPerimeter=0;exitX=0.607;exitY=0.927;exitDx=0;exitDy=0;exitPerimeter=0;" edge="1" parent="1" source="uV3Q8OEba61PmKA7GwV3-33" target="uV3Q8OEba61PmKA7GwV3-48">
          <mxGeometry relative="1" as="geometry">
            <mxPoint x="1196" y="220" as="sourcePoint" />
            <mxPoint x="1360" y="220" as="targetPoint" />
          </mxGeometry>
        </mxCell>
        <mxCell id="uV3Q8OEba61PmKA7GwV3-50" value="&lt;font style=&quot;font-size: 18px;&quot; face=&quot;Verdana&quot;&gt;GuestID&lt;/font&gt;" style="ellipse;whiteSpace=wrap;html=1;align=center;fontStyle=4;" vertex="1" parent="1">
          <mxGeometry x="1290" y="310" width="140" height="50" as="geometry" />
        </mxCell>
        <mxCell id="uV3Q8OEba61PmKA7GwV3-51" value="&lt;font style=&quot;font-size: 18px;&quot; face=&quot;Verdana&quot;&gt;Name&lt;/font&gt;" style="ellipse;whiteSpace=wrap;html=1;align=center;" vertex="1" parent="1">
          <mxGeometry x="1450" y="340" width="100" height="40" as="geometry" />
        </mxCell>
        <mxCell id="uV3Q8OEba61PmKA7GwV3-52" value="&lt;font style=&quot;font-size: 18px;&quot; face=&quot;Verdana&quot;&gt;Address&lt;/font&gt;" style="ellipse;whiteSpace=wrap;html=1;align=center;" vertex="1" parent="1">
          <mxGeometry x="1130" y="414" width="100" height="40" as="geometry" />
        </mxCell>
        <mxCell id="uV3Q8OEba61PmKA7GwV3-53" value="&lt;font style=&quot;font-size: 18px;&quot; face=&quot;Verdana&quot;&gt;Gender&lt;/font&gt;" style="ellipse;whiteSpace=wrap;html=1;align=center;" vertex="1" parent="1">
          <mxGeometry x="1180" y="480" width="100" height="40" as="geometry" />
        </mxCell>
        <mxCell id="uV3Q8OEba61PmKA7GwV3-54" value="&lt;font style=&quot;font-size: 18px;&quot; face=&quot;Verdana&quot;&gt;Age&lt;/font&gt;" style="ellipse;whiteSpace=wrap;html=1;align=center;" vertex="1" parent="1">
          <mxGeometry x="1320" y="480" width="100" height="40" as="geometry" />
        </mxCell>
        <mxCell id="uV3Q8OEba61PmKA7GwV3-55" value="&lt;font style=&quot;font-size: 18px;&quot; face=&quot;Verdana&quot;&gt;ContactNo&lt;/font&gt;" style="ellipse;whiteSpace=wrap;html=1;align=center;" vertex="1" parent="1">
          <mxGeometry x="1490" y="414" width="110" height="40" as="geometry" />
        </mxCell>
        <mxCell id="uV3Q8OEba61PmKA7GwV3-56" value="&lt;font style=&quot;font-size: 18px;&quot; face=&quot;Verdana&quot;&gt;Email&lt;/font&gt;" style="ellipse;whiteSpace=wrap;html=1;align=center;" vertex="1" parent="1">
          <mxGeometry x="1460" y="490" width="100" height="40" as="geometry" />
        </mxCell>
        <mxCell id="uV3Q8OEba61PmKA7GwV3-57" value="" style="endArrow=none;html=1;rounded=0;entryX=0;entryY=1;entryDx=0;entryDy=0;" edge="1" parent="1" target="uV3Q8OEba61PmKA7GwV3-51">
          <mxGeometry relative="1" as="geometry">
            <mxPoint x="1420" y="400" as="sourcePoint" />
            <mxPoint x="1580" y="400" as="targetPoint" />
          </mxGeometry>
        </mxCell>
        <mxCell id="uV3Q8OEba61PmKA7GwV3-58" value="" style="endArrow=none;html=1;rounded=0;" edge="1" parent="1" target="uV3Q8OEba61PmKA7GwV3-55">
          <mxGeometry relative="1" as="geometry">
            <mxPoint x="1420" y="420" as="sourcePoint" />
            <mxPoint x="1580" y="420" as="targetPoint" />
          </mxGeometry>
        </mxCell>
        <mxCell id="uV3Q8OEba61PmKA7GwV3-59" value="" style="endArrow=none;html=1;rounded=0;" edge="1" parent="1">
          <mxGeometry relative="1" as="geometry">
            <mxPoint x="1240" y="480" as="sourcePoint" />
            <mxPoint x="1290" y="440" as="targetPoint" />
          </mxGeometry>
        </mxCell>
        <mxCell id="uV3Q8OEba61PmKA7GwV3-60" value="" style="endArrow=none;html=1;rounded=0;" edge="1" parent="1">
          <mxGeometry relative="1" as="geometry">
            <mxPoint x="1370" y="480" as="sourcePoint" />
            <mxPoint x="1380" y="440" as="targetPoint" />
          </mxGeometry>
        </mxCell>
        <mxCell id="uV3Q8OEba61PmKA7GwV3-61" value="" style="endArrow=none;html=1;rounded=0;entryX=0.5;entryY=0;entryDx=0;entryDy=0;" edge="1" parent="1" target="uV3Q8OEba61PmKA7GwV3-56">
          <mxGeometry relative="1" as="geometry">
            <mxPoint x="1410" y="440" as="sourcePoint" />
            <mxPoint x="1570" y="440" as="targetPoint" />
          </mxGeometry>
        </mxCell>
        <mxCell id="uV3Q8OEba61PmKA7GwV3-62" value="" style="endArrow=none;html=1;rounded=0;entryX=0;entryY=0.25;entryDx=0;entryDy=0;exitX=0.94;exitY=0.225;exitDx=0;exitDy=0;exitPerimeter=0;" edge="1" parent="1" source="uV3Q8OEba61PmKA7GwV3-52" target="uV3Q8OEba61PmKA7GwV3-48">
          <mxGeometry relative="1" as="geometry">
            <mxPoint x="1230" y="430" as="sourcePoint" />
            <mxPoint x="1390" y="430" as="targetPoint" />
          </mxGeometry>
        </mxCell>
        <mxCell id="uV3Q8OEba61PmKA7GwV3-63" value="&lt;font face=&quot;Verdana&quot;&gt;&lt;span style=&quot;font-size: 24px;&quot;&gt;Serves&lt;/span&gt;&lt;/font&gt;" style="shape=rhombus;perimeter=rhombusPerimeter;whiteSpace=wrap;html=1;align=center;" vertex="1" parent="1">
          <mxGeometry x="1060" y="600" width="130" height="60" as="geometry" />
        </mxCell>
        <mxCell id="uV3Q8OEba61PmKA7GwV3-64" value="" style="endArrow=none;html=1;rounded=0;" edge="1" parent="1">
          <mxGeometry relative="1" as="geometry">
            <mxPoint x="1170" y="620" as="sourcePoint" />
            <mxPoint x="1362.62" y="439" as="targetPoint" />
          </mxGeometry>
        </mxCell>
        <mxCell id="uV3Q8OEba61PmKA7GwV3-65" value="&lt;font face=&quot;Verdana&quot;&gt;&lt;span style=&quot;font-size: 24px;&quot;&gt;Staff&lt;/span&gt;&lt;/font&gt;" style="whiteSpace=wrap;html=1;align=center;" vertex="1" parent="1">
          <mxGeometry x="920" y="700" width="150" height="50" as="geometry" />
        </mxCell>
        <mxCell id="uV3Q8OEba61PmKA7GwV3-66" value="" style="endArrow=none;html=1;rounded=0;entryX=0;entryY=1;entryDx=0;entryDy=0;" edge="1" parent="1" target="uV3Q8OEba61PmKA7GwV3-63">
          <mxGeometry relative="1" as="geometry">
            <mxPoint x="990" y="700" as="sourcePoint" />
            <mxPoint x="1150" y="700" as="targetPoint" />
          </mxGeometry>
        </mxCell>
        <mxCell id="uV3Q8OEba61PmKA7GwV3-67" value="&lt;font style=&quot;font-size: 18px;&quot; face=&quot;Verdana&quot;&gt;Address&lt;/font&gt;" style="ellipse;whiteSpace=wrap;html=1;align=center;" vertex="1" parent="1">
          <mxGeometry x="745" y="820" width="100" height="40" as="geometry" />
        </mxCell>
        <mxCell id="uV3Q8OEba61PmKA7GwV3-68" value="&lt;font style=&quot;font-size: 18px;&quot; face=&quot;Verdana&quot;&gt;Email&lt;/font&gt;" style="ellipse;whiteSpace=wrap;html=1;align=center;" vertex="1" parent="1">
          <mxGeometry x="845" y="870" width="100" height="40" as="geometry" />
        </mxCell>
        <mxCell id="uV3Q8OEba61PmKA7GwV3-69" value="&lt;font style=&quot;font-size: 18px;&quot; face=&quot;Verdana&quot;&gt;Age&lt;/font&gt;" style="ellipse;whiteSpace=wrap;html=1;align=center;" vertex="1" parent="1">
          <mxGeometry x="980" y="870" width="100" height="40" as="geometry" />
        </mxCell>
        <mxCell id="uV3Q8OEba61PmKA7GwV3-70" value="&lt;font style=&quot;font-size: 18px;&quot; face=&quot;Verdana&quot;&gt;Gender&lt;/font&gt;" style="ellipse;whiteSpace=wrap;html=1;align=center;" vertex="1" parent="1">
          <mxGeometry x="1100" y="850" width="100" height="40" as="geometry" />
        </mxCell>
        <mxCell id="uV3Q8OEba61PmKA7GwV3-71" value="&lt;font style=&quot;font-size: 18px;&quot; face=&quot;Verdana&quot;&gt;ContactNo&lt;/font&gt;" style="ellipse;whiteSpace=wrap;html=1;align=center;" vertex="1" parent="1">
          <mxGeometry x="730" y="740" width="110" height="40" as="geometry" />
        </mxCell>
        <mxCell id="uV3Q8OEba61PmKA7GwV3-72" value="&lt;font style=&quot;font-size: 18px;&quot; face=&quot;Verdana&quot;&gt;Position&lt;/font&gt;" style="ellipse;whiteSpace=wrap;html=1;align=center;" vertex="1" parent="1">
          <mxGeometry x="780" y="670" width="100" height="40" as="geometry" />
        </mxCell>
        <mxCell id="uV3Q8OEba61PmKA7GwV3-73" value="&lt;font style=&quot;font-size: 18px;&quot; face=&quot;Verdana&quot;&gt;Name&lt;/font&gt;" style="ellipse;whiteSpace=wrap;html=1;align=center;" vertex="1" parent="1">
          <mxGeometry x="880" y="620" width="100" height="40" as="geometry" />
        </mxCell>
        <mxCell id="uV3Q8OEba61PmKA7GwV3-74" value="&lt;font style=&quot;font-size: 18px;&quot; face=&quot;Verdana&quot;&gt;StaffID&lt;/font&gt;" style="ellipse;whiteSpace=wrap;html=1;align=center;fontStyle=4;" vertex="1" parent="1">
          <mxGeometry x="1120" y="780" width="100" height="40" as="geometry" />
        </mxCell>
        <mxCell id="uV3Q8OEba61PmKA7GwV3-75" value="&lt;font style=&quot;font-size: 18px;&quot; face=&quot;Verdana&quot;&gt;HotelID&lt;/font&gt;" style="ellipse;whiteSpace=wrap;html=1;align=center;dashed=1;" vertex="1" parent="1">
          <mxGeometry x="1150" y="710" width="100" height="40" as="geometry" />
        </mxCell>
        <mxCell id="uV3Q8OEba61PmKA7GwV3-77" value="" style="endArrow=none;html=1;rounded=0;exitX=0.5;exitY=0;exitDx=0;exitDy=0;entryX=0.25;entryY=1;entryDx=0;entryDy=0;" edge="1" parent="1" source="uV3Q8OEba61PmKA7GwV3-68" target="uV3Q8OEba61PmKA7GwV3-65">
          <mxGeometry relative="1" as="geometry">
            <mxPoint x="970" y="680" as="sourcePoint" />
            <mxPoint x="1130" y="680" as="targetPoint" />
          </mxGeometry>
        </mxCell>
        <mxCell id="uV3Q8OEba61PmKA7GwV3-78" value="" style="endArrow=none;html=1;rounded=0;exitX=0.5;exitY=0;exitDx=0;exitDy=0;entryX=0.065;entryY=1.06;entryDx=0;entryDy=0;entryPerimeter=0;" edge="1" parent="1" target="uV3Q8OEba61PmKA7GwV3-65">
          <mxGeometry relative="1" as="geometry">
            <mxPoint x="837" y="830" as="sourcePoint" />
            <mxPoint x="900" y="710" as="targetPoint" />
          </mxGeometry>
        </mxCell>
        <mxCell id="uV3Q8OEba61PmKA7GwV3-80" value="" style="endArrow=none;html=1;rounded=0;entryX=0.5;entryY=1;entryDx=0;entryDy=0;exitX=0.4;exitY=0;exitDx=0;exitDy=0;exitPerimeter=0;" edge="1" parent="1" source="uV3Q8OEba61PmKA7GwV3-69" target="uV3Q8OEba61PmKA7GwV3-65">
          <mxGeometry relative="1" as="geometry">
            <mxPoint x="934" y="883" as="sourcePoint" />
            <mxPoint x="1003" y="760" as="targetPoint" />
          </mxGeometry>
        </mxCell>
        <mxCell id="uV3Q8OEba61PmKA7GwV3-81" value="" style="endArrow=none;html=1;rounded=0;entryX=0.75;entryY=1;entryDx=0;entryDy=0;exitX=0;exitY=0;exitDx=0;exitDy=0;" edge="1" parent="1" source="uV3Q8OEba61PmKA7GwV3-70" target="uV3Q8OEba61PmKA7GwV3-65">
          <mxGeometry relative="1" as="geometry">
            <mxPoint x="944" y="893" as="sourcePoint" />
            <mxPoint x="1013" y="770" as="targetPoint" />
          </mxGeometry>
        </mxCell>
        <mxCell id="uV3Q8OEba61PmKA7GwV3-82" value="" style="endArrow=none;html=1;rounded=0;entryX=1;entryY=1;entryDx=0;entryDy=0;exitX=0;exitY=0;exitDx=0;exitDy=0;" edge="1" parent="1" source="uV3Q8OEba61PmKA7GwV3-74" target="uV3Q8OEba61PmKA7GwV3-65">
          <mxGeometry relative="1" as="geometry">
            <mxPoint x="954" y="903" as="sourcePoint" />
            <mxPoint x="1023" y="780" as="targetPoint" />
          </mxGeometry>
        </mxCell>
        <mxCell id="uV3Q8OEba61PmKA7GwV3-83" value="" style="endArrow=none;html=1;rounded=0;entryX=0;entryY=0.5;entryDx=0;entryDy=0;" edge="1" parent="1" target="uV3Q8OEba61PmKA7GwV3-75">
          <mxGeometry relative="1" as="geometry">
            <mxPoint x="1070" y="720" as="sourcePoint" />
            <mxPoint x="1230" y="720" as="targetPoint" />
          </mxGeometry>
        </mxCell>
        <mxCell id="uV3Q8OEba61PmKA7GwV3-84" value="" style="endArrow=none;html=1;rounded=0;entryX=0;entryY=0.5;entryDx=0;entryDy=0;" edge="1" parent="1" target="uV3Q8OEba61PmKA7GwV3-65">
          <mxGeometry relative="1" as="geometry">
            <mxPoint x="840" y="760" as="sourcePoint" />
            <mxPoint x="1000" y="760" as="targetPoint" />
          </mxGeometry>
        </mxCell>
        <mxCell id="uV3Q8OEba61PmKA7GwV3-85" value="" style="endArrow=none;html=1;rounded=0;entryX=0;entryY=0.25;entryDx=0;entryDy=0;" edge="1" parent="1" target="uV3Q8OEba61PmKA7GwV3-65">
          <mxGeometry relative="1" as="geometry">
            <mxPoint x="880" y="690" as="sourcePoint" />
            <mxPoint x="1040" y="690" as="targetPoint" />
          </mxGeometry>
        </mxCell>
        <mxCell id="uV3Q8OEba61PmKA7GwV3-86" value="" style="endArrow=none;html=1;rounded=0;entryX=0.354;entryY=-0.007;entryDx=0;entryDy=0;entryPerimeter=0;" edge="1" parent="1" target="uV3Q8OEba61PmKA7GwV3-65">
          <mxGeometry relative="1" as="geometry">
            <mxPoint x="930" y="660" as="sourcePoint" />
            <mxPoint x="1090" y="660" as="targetPoint" />
          </mxGeometry>
        </mxCell>
      </root>
    </mxGraphModel>
  </diagram>
</mxfile>
